<?xml version="1.0" encoding="UTF-8"?>
<svg version="1.1" xmlns="http://www.w3.org/2000/svg" width="62" height="53">
<path d="M0 0 C2.05078125 0.03255208 4.1015625 0.06510417 6.15234375 0.09765625 C6.83984375 3.34765625 6.83984375 3.34765625 7.15234375 7.09765625 C5.671875 9.33203125 5.671875 9.33203125 4.15234375 11.09765625 C4.78140625 11.55914062 5.41046875 12.020625 6.05859375 12.49609375 C13.45050572 18.12908691 19.00774495 24.38075805 24.15234375 32.09765625 C23.77302828 35.13217998 22.90193694 36.47326646 21.15234375 39.09765625 C21.81234375 39.44828125 22.47234375 39.79890625 23.15234375 40.16015625 C25.15234375 42.09765625 25.15234375 42.09765625 25.40234375 45.78515625 C25.31984375 46.87828125 25.23734375 47.97140625 25.15234375 49.09765625 C21.83984375 49.78515625 21.83984375 49.78515625 18.15234375 50.09765625 C15.50437025 48.33234058 15.17534515 47.16666046 14.15234375 44.09765625 C12.41984375 45.02578125 12.41984375 45.02578125 10.65234375 45.97265625 C2.63668414 49.91753585 -5.93659287 51.54857566 -14.84765625 50.09765625 C-17.23270175 48.2372126 -17.70795864 46.97689231 -18.84765625 44.09765625 C-19.34265625 44.59265625 -19.34265625 44.59265625 -19.84765625 45.09765625 C-23.28515625 45.28515625 -23.28515625 45.28515625 -26.84765625 45.09765625 C-28.84765625 43.09765625 -28.84765625 43.09765625 -29.16015625 40.09765625 C-29.05703125 39.10765625 -28.95390625 38.11765625 -28.84765625 37.09765625 C-25.62551868 34.94956454 -24.56990224 34.80379472 -20.84765625 35.09765625 C-20.51765625 35.42765625 -20.18765625 35.75765625 -19.84765625 36.09765625 C-19.77289063 35.22625 -19.698125 34.35484375 -19.62109375 33.45703125 C-18.59489579 24.16088503 -16.4581035 15.60654963 -10.32421875 8.27734375 C-8.1974211 6.57815621 -6.48234719 6.88403266 -3.84765625 7.09765625 C-3.70328125 6.12828125 -3.55890625 5.15890625 -3.41015625 4.16015625 C-2.67198528 0.14122544 -2.67198528 0.14122544 0 0 Z M-7.84765625 25.09765625 C-7.42082386 26.6838986 -6.98069467 28.26656605 -6.53515625 29.84765625 C-6.29152344 30.729375 -6.04789063 31.61109375 -5.796875 32.51953125 C-4.82640294 35.1553813 -3.63759981 36.95172951 -1.84765625 39.09765625 C2.06389055 37.61807116 3.37979615 35.55808154 5.40234375 31.97265625 C5.923125 31.06257813 6.44390625 30.1525 6.98046875 29.21484375 C7.3671875 28.51617188 7.75390625 27.8175 8.15234375 27.09765625 C4.52038879 24.67635294 2.76885027 24.8874284 -1.53515625 24.97265625 C-2.71464844 24.99070312 -3.89414062 25.00875 -5.109375 25.02734375 C-6.46482422 25.06214844 -6.46482422 25.06214844 -7.84765625 25.09765625 Z " fill="#0055B5" transform="translate(31.84765625,1.90234375)"/>
<path d="M0 0 C2.05078125 0.03255208 4.1015625 0.06510417 6.15234375 0.09765625 C7.5061899 6.49765625 7.5061899 6.49765625 5.71484375 9.53515625 C5.19921875 10.05078125 4.68359375 10.56640625 4.15234375 11.09765625 C5.38984375 11.74734375 5.38984375 11.74734375 6.65234375 12.41015625 C9.6408017 15.62274855 9.49219287 16.59760315 9.46484375 20.84765625 C9.38461584 22.59891699 9.28795239 24.34981158 9.15234375 26.09765625 C8.54237549 26.0819458 7.93240723 26.06623535 7.30395508 26.05004883 C4.52434665 25.98745812 1.74488683 25.94859003 -1.03515625 25.91015625 C-2.4747168 25.87245117 -2.4747168 25.87245117 -3.94335938 25.83398438 C-9.14989865 25.77993725 -12.55316983 25.81869969 -16.84765625 29.09765625 C-17.50765625 29.09765625 -18.16765625 29.09765625 -18.84765625 29.09765625 C-17.47731925 21.37393861 -15.23490576 12.27695443 -8.84765625 7.09765625 C-6.16015625 6.91015625 -6.16015625 6.91015625 -3.84765625 7.09765625 C-3.70328125 6.12828125 -3.55890625 5.15890625 -3.41015625 4.16015625 C-2.67198528 0.14122544 -2.67198528 0.14122544 0 0 Z " fill="#00A8EC" transform="translate(31.84765625,1.90234375)"/>
<path d="M0 0 C4.01061652 1.54747532 5.98792367 4.11690054 8.625 7.4375 C9.78902344 8.88962891 9.78902344 8.88962891 10.9765625 10.37109375 C15.0431804 15.65455678 15.0431804 15.65455678 14.75 18 C14 20 14 20 12 23 C12.99 23.5259375 12.99 23.5259375 14 24.0625 C16 26 16 26 16.25 29.6875 C16.1675 30.780625 16.085 31.87375 16 33 C12.6875 33.6875 12.6875 33.6875 9 34 C6.3520265 32.23468433 6.0230014 31.06900421 5 28 C3.96875 28.5775 2.9375 29.155 1.875 29.75 C-0.05078125 30.58203125 -0.05078125 30.58203125 -2 31 C-6.2042316 29.01687189 -8.1260043 27.16150218 -10 23 C-9.40251953 22.22076172 -9.40251953 22.22076172 -8.79296875 21.42578125 C-7.17615558 19.29756732 -5.58736313 17.15022914 -4 15 C-3.1028125 13.824375 -3.1028125 13.824375 -2.1875 12.625 C-0.35685265 8.57830585 -0.24761882 4.39736871 0 0 Z " fill="#083C71" transform="translate(41,18)"/>
<path d="M0 0 C4.05258567 2.02629284 5.49958627 3.46892268 8.25 6.9375 C8.95640625 7.81277344 9.6628125 8.68804687 10.390625 9.58984375 C12 12 12 12 12 15 C7.76570244 13.68938409 3.92592596 12.05643741 0 10 C0 6.7 0 3.4 0 0 Z " fill="#07548B" transform="translate(41,18)"/>
<path d="M0 0 C0.33 0 0.66 0 1 0 C1 5.61 1 11.22 1 17 C0.67 17 0.34 17 0 17 C0 11.39 0 5.78 0 0 Z " fill="#898A8A" transform="translate(61,24)"/>
<path d="M0 0 C3.875 1.75 3.875 1.75 5 4 C3.68 4 2.36 4 1 4 C0.67 4.99 0.34 5.98 0 7 C0 4.69 0 2.38 0 0 Z " fill="#0574AB" transform="translate(41,18)"/>
</svg>
